<?xml version="1.0" encoding="UTF-8" standalone="no"?><svg xmlns="http://www.w3.org/2000/svg" xmlns:xlink="http://www.w3.org/1999/xlink" clip-rule="evenodd" fill="#000000" fill-rule="evenodd" height="118799.1" image-rendering="optimizeQuality" preserveAspectRatio="xMidYMid meet" shape-rendering="geometricPrecision" text-rendering="geometricPrecision" version="1" viewBox="144626.6 82178.6 116813.1 118799.1" width="116813.1" zoomAndPan="magnify"><defs><linearGradient gradientUnits="userSpaceOnUse" id="a" x1="155629.4" x2="250436.9" xlink:actuate="onLoad" xlink:show="other" xlink:type="simple" y1="171431.4" y2="105533.4"><stop offset="0" stop-color="#8c52ff"/><stop offset="1" stop-color="#464e66"/></linearGradient></defs><g><path d="M166851.7 164023.1c0,0 -529.1,-19402.9 6526.4,-31397.4 7055.5,-11994.5 12347.2,-20284.8 12347.2,-20284.8 0,0 -24341.6,17462.6 -32279.2,37218.2 -7937.6,19755.6 -8819.5,24341.8 -8819.5,24341.8 0,0 352.5,-43920.8 10583,-59795.8 14588.1,-22636.8 31837.1,-27436.5 55033.4,-31926.5 0,0 -10230.6,12523.7 -7761.1,17815.4 2469.5,5291.7 8466.7,8466.7 8466.7,8466.7 0,0 176.4,-3880.5 -1411.1,-4233.3 -1587.5,-352.8 9348.6,529.2 13141,2204.9 3792.4,1675.7 5291.7,2557.6 5291.7,2557.6 0,0 -3616.1,-7496.6 -5732.7,-8819.5 -2116.6,-1322.9 -3439.6,-1587.5 -3439.6,-1587.5 0,0 16757,6702.9 18609.1,7761.2 1852.1,1058.3 3968.8,3704.1 3968.8,3704.1l-441 -10406.9c0,0 5821,8113.9 6173.7,11200.7 352.7,3086.8 926,5512.1 926,5512.1l4189.2 -5820.8c0,0 -1543.4,3616.1 -1631.6,5512.2 -88.2,1896.1 -88.2,2557.6 -88.2,2557.6 0,0 2778.2,-2954.6 4409.8,-3924.7 1631.6,-970.1 2689.9,-1234.7 2689.9,-1234.7 0,0 -4806.8,5820.7 -4189.4,11112.4 617.4,5291.7 1764,8731.3 2469.5,10407 705.5,1675.7 2734,9525.3 2910.4,13405.9 176.4,3880.6 -2293,10407 -2293,10407 0,0 -2822.2,-9172.3 -8290.3,-11994.5 -5468.1,-2822.2 -13582,-4233.3 -13582,-4233.3 0,0 3174.9,-529.3 4409.7,-1234.8 1234.8,-705.5 0,-2822.1 -4762.5,-5291.6 -4762.5,-2469.5 -8819.4,-4938.9 -8819.4,-4938.9l6173.6 0 -882 -1587.5 6173.7 -4057c-55267.2,-3973.4 -45448.9,65087.6 7584.5,65087.6 8819.4,0 16933.3,-2116.7 16933.3,-2116.7 -30808.1,12568.4 -79463.9,8687.7 -80962.9,-31044.6 -352.6,-9348.6 2645.9,-19402.7 2645.9,-19402.7 0,0 -7408.4,-352.8 -16271,26061.1zm79326.7 -30778.3l308.6 2160.7 4498 3571.9 -1984.4 -4674.3 -2822.2 -1058.3z" fill="url(#a)"/><g id="change1_1"><path d="M231630.2 131082.9c0,0 880.1,1852.1 4672.5,3086.8 3792.4,1234.7 4674.2,1852.1 6261.8,2998.6 1587.6,1146.5 5115.4,4233.3 6261.9,4674.3 1146.5,441 3616,4586 5115.3,7937.4 1499.3,3351.4 2741.4,8494.9 2741.4,8494.9 0,0 -5863.7,-12087.3 -13254.3,-13466.1 -7390.6,-1378.8 -8800,-2260.6 -8800,-2260.6 0,0 5240.6,-187.9 4143.5,-2293.2 -1097.1,-2105.3 -7920.8,-6568.8 -8943.4,-6635.8 -1022.6,-67 -4372.3,-2536.3 -4372.3,-2536.3l6173.6 0z" fill="#ff66c4"/></g><g id="change1_2"><path d="M205758.4 172294.4c4322.4,11429.3 9117.8,16503.4 20225.4,21230.2 1541.8,656.1 3472.7,1549.3 5194.3,1268.1 3876.8,-633.3 25054.1,-4121.6 26560.2,-4975.2 1658.3,-940 2097.8,-1034 2097.8,-1034 0,0 -30412.7,11884.9 -54077.7,-16489.1z" fill="#ff66c4"/></g><g id="change1_3"><path d="M159924.6 137998.5c5869.5,-33380.4 23829.6,-30472.5 45330.5,-48588.3l4080 -6067.2c-28382.8,3936.6 -54204.6,17857.5 -60373.8,48037.4 -713.1,3488.5 -2825,37530.4 -2825,37530.4 0,0 9555.5,-31389.1 13788.3,-30912.3z" fill="#ff66c4"/></g><g id="change2_1"><path d="M233887.5 135819.6c0,0 6999.6,3025.4 9116.3,4965.6 2116.7,1940.2 5868.6,6926 5868.6,6926 0,0 -7876.9,-3338.5 -9540.2,-3745 -1663.3,-406.5 -4703.4,-1418 -4703.4,-1418 0,0 9997.7,-74.5 -741.3,-6728.6z" fill="#8c52ff"/></g><g id="change2_2"><path d="M258792 149267.8c0,0 -2559.2,-7335.8 -4587.7,-11657.3 -2028.5,-4321.5 -2293.2,-5909 -2734.1,-7584.7 -440.9,-1675.7 -3175,-8643.1 -3175,-8643.1 0,0 3263.3,4497.8 3968.8,5909 705.5,1411.2 2367.7,3884.1 2367.7,3884.1 0,0 2306.6,-1150 2571.2,-2825.7 264.6,-1675.7 352.8,-4586.2 352.8,-4586.2 0,0 3439.6,17639 1236.3,25503.9z" fill="#8c52ff"/></g><g id="change1_4"><path d="M166846.5 162390.8c0,0 8688.2,-20635.2 12568.7,-28572.7 3880.5,-7937.5 10936.1,-24518.1 10936.1,-24518.1l-4626 3040.9c0,0 -21832.4,25357.8 -18878.8,50049.9z" fill="#ff66c4"/></g><g id="change1_5"><path d="M201498.4 142966.6c0,0 2168,-14353 5695.8,-16998.8 3527.8,-2645.8 6173.6,-2469.3 6702.8,-5115.2 529.2,-2645.9 0,-7408.4 0,-7408.4 0,0 2645.9,5644.4 5291.7,5997.2 2645.8,352.8 4586,-176.4 7584.7,176.4 2998.7,352.8 10148.5,5820.6 10148.5,5820.6 0,0 -24965.2,-4762.2 -35423.5,17528.2z" fill="#ff66c4"/></g><g id="change2_3"><path d="M205917.3 135444.3c8274.2,-10137.7 11013.5,-12361.9 24122.9,-10414.3 0,0 -14347.4,925.3 -24122.9,10414.3z" fill="#8c52ff"/></g></g></svg>