<?xml version="1.0" encoding="UTF-8"?><svg xmlns="http://www.w3.org/2000/svg" xmlns:xlink="http://www.w3.org/1999/xlink" height="1084.9" preserveAspectRatio="xMidYMid meet" version="1.0" viewBox="-638.4 565.5 2401.7 1084.9" width="2401.7" zoomAndPan="magnify"><g><g id="change1_1"><path d="M-595.64435,1650.437L-588.2521,1635.47Q-469.24426,1353.2977,-328.1248,1214.6211Q-146.97028,1035.4064,86.84671,958.2854Q481.66833,825.8827,722.38776,1063.8948Q838.73785,1200.7356,819.18884,1375.3668Q783.53046,1538.9698,646.43976,1552.0911Q572.3982,1557.1947,525.2872,1478.4791Q470.35098,1372.3694,481.85107,1273.8793Q520.291,1098.6283,756.50903,943.3369Q931.3727,827.87524,1125.5372,804.46533Q1226.8683,792.39294,1351.9314,806.04364L1462.9082,822.8753L1658.4207,863.9566L1700.5786,870.483Q1723.294,872.1951,1741.8408,839.5849Q1749.7996,804.6469,1734.975,798.1064Q1676.8267,772.5074,1583.238,750.6391Q1399.6775,711.33417,1185.7975,721.98004Q937.75433,726.27686,676.52673,906.0951Q419.4611,1095.5691,403.81424,1297.5853Q411.1421,1444.8585,476.61523,1537.0084Q542.4917,1627.217,651.0707,1624.542Q835.9255,1601.2314,887.542,1411.0828Q923.3235,1202.2223,790.602,1028.5524Q656.97156,884.796,475.40775,849.35535Q261.00696,813.8801,39.428154,893.69543Q-283.52374,1020.058,-463.1585,1247.4816Q-583.9853,1400.0308,-627.1404,1504.0398Q-638.41034,1525.4036,-638.19495,1569.0486Q-635.41125,1583.3959,-628.01697,1591.8114L-593.8407,1626.9723Q-590.72546,1635.638,-595.64435,1650.437"/></g><g id="change1_2"><path d="M1726.6962,781.5019Q1728.5354,782.0494,1730.0763,782.7519L1730.0763,782.7519C1728.9708,782.2692,1727.8368,781.8515,1726.6798,781.5018 Z M1700.2084,813.841C1699.1442,817.12897,1698.6428,820.57465,1698.7273,824.0323L1698.7119,824.03217Q1698.4849,818.17194,1700.1924,813.8409 Z M1359.574,565.56335C1349.8156,565.515,1340.1993,570.1167,1334.2139,578.7388C1324.5593,592.64575,1328.0068,611.7461,1341.9137,621.40063Q1361.2401,634.8173,1383.6047,647.6192C1383.9786,647.8332,1384.3572,648.03937,1384.7399,648.2376Q1527.1055,721.94086,1540.4591,731.3736L1540.4509,731.3736C1540.9507,731.7519,1541.4619,732.1149,1541.9839,732.462Q1629.332,790.5312,1669.4001,816.5903L1669.3845,816.59015Q1597.3748,833.97943,1338.3436,906.82935L1338.3436,906.82935C1322.0463,911.41284,1312.5503,928.3402,1317.1338,944.6377C1320.9225,958.1096,1333.1461,966.9341,1346.4762,967.0001C1349.272,967.0139,1352.1165,966.64246,1354.942,965.8478Q1670.5293,877.092,1702.2981,872.06354C1703.4806,871.8764,1704.6506,871.6202,1705.803,871.2961Q1728.5383,864.9035,1740.3268,857.15094L1740.3268,857.15094Q1758.296,845.3337,1759.9146,827.825L1759.8978,827.825Q1763.2504,810.6713,1747.5599,795.4841L1747.5599,795.4841Q1742.8717,790.9462,1735.3328,785.6932L1735.3325,785.6932C1733.936,784.72003,1732.4635,783.8669,1730.9315,783.1412L1730.9152,783.14105Q1716.7915,775.05035,1576.8047,681.99115L1576.7899,681.99115Q1576.3264,681.64886,1575.8319,681.2995L1575.8306,681.2985Q1559.0736,669.46185,1413.6407,594.16296L1413.6276,594.16296Q1393.8264,582.80615,1376.8757,571.0387C1371.5907,567.36975,1365.5555,565.5929,1359.574,565.56335 Z"/></g></g></svg>